<mxfile host="app.diagrams.net" modified="2021-05-13T01:42:42.647Z" agent="5.0 (Windows)" etag="Nb_MjW7aPP2_ZzMOmwRk" version="14.6.12" type="github">
  <diagram id="6wZPgM5fM8KpBSpR6kdH" name="Page-1">
    <mxGraphModel dx="1422" dy="763" grid="1" gridSize="10" guides="1" tooltips="1" connect="1" arrows="1" fold="1" page="1" pageScale="1" pageWidth="827" pageHeight="1169" math="0" shadow="0">
      <root>
        <mxCell id="0" />
        <mxCell id="1" parent="0" />
        <mxCell id="cuceO5Cf-MV7t8IaMW8p-1" value="" style="rounded=0;whiteSpace=wrap;html=1;" vertex="1" parent="1">
          <mxGeometry x="320" y="130" width="120" height="60" as="geometry" />
        </mxCell>
      </root>
    </mxGraphModel>
  </diagram>
</mxfile>
